<?xml version="1.0" standalone="no"?>
<!DOCTYPE svg PUBLIC "-//W3C//DTD SVG 20010904//EN"
 "http://www.w3.org/TR/2001/REC-SVG-20010904/DTD/svg10.dtd">
<svg version="1.0" xmlns="http://www.w3.org/2000/svg"
 width="500.000000pt" height="500.000000pt" viewBox="0 0 500.000000 500.000000"
 preserveAspectRatio="xMidYMid meet">
<metadata>
Created by potrace 1.10, written by Peter Selinger 2001-2011
</metadata>
<g transform="translate(0.000000,500.000000) scale(0.100000,-0.100000)"
fill="#000000" stroke="none">
<path d="M380 4603 c0 -2 0 -204 0 -449 l-1 -447 88 0 88 0 0 162 c0 88 3 160
6 159 3 -2 74 -75 156 -163 l151 -160 84 1 83 1 3 35 c3 33 -5 44 -94 139 -53
57 -137 145 -185 194 l-88 91 170 181 c158 170 169 184 169 220 l0 38 -77 -3
c-43 -2 -83 -5 -89 -7 -6 -1 -71 -68 -145 -147 -73 -78 -136 -144 -139 -146
-3 -1 -5 66 -5 149 l0 151 -88 1 c-48 1 -87 1 -87 0z m130 -223 c0 -99 3 -180
8 -180 4 0 83 81 176 180 l168 180 54 0 c30 0 54 -3 54 -6 0 -3 -79 -91 -176
-196 l-177 -189 25 -27 c13 -15 99 -106 191 -203 92 -97 167 -179 167 -183 0
-3 -26 -6 -59 -6 l-58 0 -179 189 c-99 104 -182 187 -186 184 -5 -2 -8 -87 -8
-189 l0 -184 -47 0 -48 0 0 405 0 405 48 0 47 0 0 -180z"/>
<path d="M1538 4580 c-6 -14 -27 -74 -48 -135 -91 -262 -247 -708 -254 -725
-5 -13 8 -15 91 -13 l98 1 35 111 35 111 145 0 145 0 36 -111 35 -111 97 -1
c53 -1 97 -2 97 -1 0 2 -132 380 -207 594 -36 102 -73 208 -82 237 -9 29 -20
55 -23 58 -4 4 -48 7 -98 8 -90 2 -93 1 -102 -23z m172 -23 c0 -1 23 -68 51
-147 28 -80 88 -253 134 -385 46 -132 86 -248 90 -257 6 -16 1 -18 -47 -18
l-55 0 -33 110 -33 110 -175 -2 -175 -3 -36 -107 -36 -107 -52 -1 -52 0 19 53
c42 120 156 443 208 595 l56 162 68 0 c37 0 68 -1 68 -3z"/>
<path d="M1564 4258 l-69 -203 139 -3 c76 -1 141 -1 143 2 7 7 -125 400 -135
404 -5 1 -40 -88 -78 -200z m145 -108 c11 -30 21 -56 21 -57 0 -2 -40 -3 -89
-3 l-90 0 40 118 c21 64 42 124 45 132 4 9 16 -16 29 -60 12 -41 32 -100 44
-130z"/>
<path d="M2250 4602 c0 -6 23 -48 51 -94 28 -46 79 -128 112 -183 33 -55 69
-113 80 -128 l19 -28 -133 -220 c-73 -121 -136 -222 -141 -225 -23 -15 2 -19
95 -17 l102 2 43 68 c23 37 68 110 99 162 41 67 60 90 65 80 5 -8 50 -81 101
-162 l92 -148 103 -2 c56 -2 102 -1 102 1 0 1 -9 15 -19 30 -10 15 -58 92
-106 172 -48 80 -103 169 -121 197 -19 29 -34 54 -34 57 0 3 206 341 244 401
7 11 13 24 12 29 -1 5 -44 8 -96 8 l-95 -1 -92 -146 c-50 -81 -93 -148 -95
-150 -2 -2 -44 63 -93 145 l-90 149 -87 1 c-47 0 -93 3 -102 6 -9 3 -16 1 -16
-4z m255 -169 c43 -71 89 -145 102 -165 13 -21 27 -38 31 -38 4 0 52 75 107
165 l100 164 53 1 c62 0 68 19 -50 -170 -46 -74 -96 -155 -110 -181 l-27 -45
61 -100 c34 -54 90 -145 124 -202 35 -57 64 -105 64 -108 0 -2 -24 -4 -52 -4
l-53 0 -98 160 c-53 87 -100 166 -103 175 -11 29 -29 14 -75 -63 -25 -42 -73
-121 -105 -174 l-59 -98 -58 0 -58 0 24 33 c14 17 73 112 131 209 l107 178
-29 42 c-15 24 -64 102 -107 173 -43 72 -84 137 -92 146 -21 25 -16 29 40 29
l53 0 79 -127z"/>
<path d="M3533 4596 c-177 -58 -272 -211 -272 -441 0 -145 34 -253 109 -337
142 -162 448 -162 590 -1 156 177 144 549 -23 699 -71 65 -137 88 -257 91 -69
2 -120 -2 -147 -11z m300 -61 c137 -68 209 -227 194 -424 -20 -250 -156 -381
-385 -369 -142 7 -233 63 -291 179 -41 82 -54 156 -48 269 9 189 89 311 237
364 33 12 71 15 140 13 81 -3 104 -7 153 -32z"/>
<path d="M3565 4468 c-86 -30 -139 -109 -157 -237 -20 -146 20 -299 94 -354
74 -54 196 -64 285 -23 96 45 136 133 136 301 0 168 -40 256 -136 301 -57 26
-164 32 -222 12z m180 -39 c89 -25 135 -117 135 -274 0 -207 -75 -295 -241
-283 -75 5 -129 40 -160 104 -31 65 -39 234 -15 316 18 63 71 123 121 137 43
13 114 13 160 0z"/>
</g>
</svg>
